<?xml version="1.0" encoding="UTF-8" standalone="no"?>
<!-- Created with Inkscape (http://www.inkscape.org/) -->

<svg
   version="1.1"
   id="svg248"
   width="1487.4952"
   height="1018.1887"
   viewBox="0 0 1487.4953 1018.1887"
   sodipodi:docname="logo.svg"
   inkscape:version="1.2.2 (b0a8486541, 2022-12-01)"
   inkscape:export-filename="logo.png"
   inkscape:export-xdpi="96"
   inkscape:export-ydpi="96"
   xmlns:inkscape="http://www.inkscape.org/namespaces/inkscape"
   xmlns:sodipodi="http://sodipodi.sourceforge.net/DTD/sodipodi-0.dtd"
   xmlns="http://www.w3.org/2000/svg"
   xmlns:svg="http://www.w3.org/2000/svg">
  <defs
     id="defs252">
    <linearGradient
       id="linearGradient7421"
       inkscape:swatch="solid">
      <stop
         style="stop-color:#4d83af;stop-opacity:1;"
         offset="0"
         id="stop7419" />
    </linearGradient>
    <linearGradient
       id="linearGradient4587"
       inkscape:swatch="solid">
      <stop
         style="stop-color:#4d83af;stop-opacity:1;"
         offset="0"
         id="stop4585" />
    </linearGradient>
    <inkscape:path-effect
       effect="fill_between_many"
       method="originald"
       linkedpaths="#g15130,0,1"
       id="path-effect15201"
       is_visible="true"
       lpeversion="0"
       join="true"
       close="true"
       autoreverse="true" />
    <filter
       style="color-interpolation-filters:sRGB;"
       height="1.1258059"
       width="1.0921856"
       y="-0.062904501"
       x="-0.046316141"
       inkscape:label="Outline"
       id="filter23900">
      <feGaussianBlur
         in="SourceAlpha"
         stdDeviation="3"
         result="blur1"
         id="feGaussianBlur23876" />
      <feComposite
         in="SourceGraphic"
         in2="blur1"
         operator="out"
         result="composite1"
         id="feComposite23878" />
      <feColorMatrix
         values="1 0 0 0 0 0 1 0 0 0 0 0 1 0 0 0 0 0 10 -1 "
         result="colormatrix1"
         id="feColorMatrix23880" />
      <feGaussianBlur
         stdDeviation="3"
         result="blur2"
         id="feGaussianBlur23882" />
      <feComposite
         in="blur2"
         in2="blur2"
         operator="over"
         result="composite2"
         id="feComposite23884" />
      <feColorMatrix
         values="1 0 0 0 0 0 1 0 0 0 0 0 1 0 0 0 0 0 10 -1 "
         result="colormatrix2"
         id="feColorMatrix23886" />
      <feGaussianBlur
         stdDeviation="1"
         result="blur3"
         id="feGaussianBlur23888" />
      <feColorMatrix
         values="1 0 0 0 0 0 1 0 0 0 0 0 1 0 0 0 0 0 1 0 "
         result="colormatrix3"
         id="feColorMatrix23890" />
      <feFlood
         flood-opacity="1"
         flood-color="rgb(255,255,255)"
         result="flood"
         id="feFlood23892" />
      <feComposite
         in="flood"
         in2="colormatrix3"
         k2="1"
         operator="in"
         result="composite3"
         id="feComposite23894" />
      <feComposite
         in="SourceGraphic"
         in2="colormatrix3"
         operator="out"
         result="composite4"
         id="feComposite23896" />
      <feComposite
         in="composite4"
         in2="composite3"
         k2="1"
         k3="1"
         operator="arithmetic"
         result="fbSourceGraphic"
         id="feComposite23898" />
      <feColorMatrix
         result="fbSourceGraphicAlpha"
         in="fbSourceGraphic"
         values="0 0 0 -1 0 0 0 0 -1 0 0 0 0 -1 0 0 0 0 1 0"
         id="feColorMatrix24448" />
      <feGaussianBlur
         id="feGaussianBlur24450"
         in="fbSourceGraphicAlpha"
         stdDeviation="3"
         result="blur1" />
      <feComposite
         in2="blur1"
         id="feComposite24452"
         in="fbSourceGraphic"
         operator="out"
         result="composite1" />
      <feColorMatrix
         id="feColorMatrix24454"
         values="1 0 0 0 0 0 1 0 0 0 0 0 1 0 0 0 0 0 10 -1 "
         result="colormatrix1" />
      <feGaussianBlur
         id="feGaussianBlur24456"
         stdDeviation="3"
         result="blur2" />
      <feComposite
         in2="blur2"
         id="feComposite24458"
         in="blur2"
         operator="out"
         result="composite2" />
      <feColorMatrix
         id="feColorMatrix24460"
         values="1 0 0 0 0 0 1 0 0 0 0 0 1 0 0 0 0 0 10 -1 "
         result="colormatrix2" />
      <feGaussianBlur
         id="feGaussianBlur24462"
         stdDeviation="1"
         result="blur3" />
      <feColorMatrix
         id="feColorMatrix24464"
         values="1 0 0 0 0 0 1 0 0 0 0 0 1 0 0 0 0 0 1 0 "
         result="colormatrix3" />
      <feFlood
         id="feFlood24466"
         flood-opacity="1"
         flood-color="rgb(255,255,255)"
         result="flood" />
      <feComposite
         in2="colormatrix3"
         id="feComposite24468"
         in="flood"
         k2="1"
         operator="in"
         result="composite3" />
      <feComposite
         in2="colormatrix3"
         id="feComposite24470"
         in="fbSourceGraphic"
         operator="out"
         result="composite4" />
      <feComposite
         in2="composite3"
         id="feComposite24472"
         in="composite4"
         k2="1"
         k3="1"
         operator="arithmetic"
         result="composite5" />
    </filter>
  </defs>
  <sodipodi:namedview
     id="namedview250"
     pagecolor="#505050"
     bordercolor="#eeeeee"
     borderopacity="1"
     inkscape:showpageshadow="0"
     inkscape:pageopacity="0"
     inkscape:pagecheckerboard="0"
     inkscape:deskcolor="#505050"
     showgrid="false"
     inkscape:zoom="0.33704407"
     inkscape:cx="835.20235"
     inkscape:cy="738.77579"
     inkscape:window-width="1864"
     inkscape:window-height="1048"
     inkscape:window-x="56"
     inkscape:window-y="32"
     inkscape:window-maximized="1"
     inkscape:current-layer="g254" />
  <g
     inkscape:groupmode="layer"
     inkscape:label="Image"
     id="g254"
     transform="translate(-648.10012,-258.88695)">
    <g
       id="g4298"
       style="stroke-width:30;stroke-dasharray:none;stroke:#4d83af;stroke-opacity:1;fill:#000000;fill-opacity:0;filter:url(#filter23900)">
      <path
         style="fill:#000000;fill-opacity:0;stroke:#4d83af;stroke-width:51.49443511;stroke-linecap:round;stroke-dasharray:none;stroke-opacity:1"
         d="m 992.02455,1244.946 c -14.00817,-3.9527 -26.94731,-12.2159 -38.54705,-24.617 -9.96036,-10.6484 -10.59063,-10.9629 -24.05441,-12.0026 -26.19215,-2.0225 -49.46679,-18.5294 -61.33729,-43.5016 -5.16842,-10.873 -5.98379,-15.0967 -5.98522,-31.0048 -0.001,-16.3555 0.71329,-19.8333 6.38524,-31.0694 7.55736,-14.9711 21.30085,-28.7909 36.59529,-36.7986 10.05354,-5.2636 10.90212,-6.261 9.48528,-11.1481 -1.83223,-6.3198 -91.01907,-213.83249 -135.3052,-314.81711 C 746.91302,666.22405 709.59295,581.723 649.07797,445.22266 c -19.95054,-45.00136 -37.38139,-86.0019 -38.73521,-91.11232 -6.46906,-24.41945 8.40882,-54.52944 32.30664,-65.38244 10.93073,-4.9641 35.88698,-5.36279 46.95926,-0.7502 11.90143,4.958 23.05842,17.09717 32.05771,34.87984 4.48142,8.85532 9.12847,16.70653 10.32677,17.44712 1.1983,0.74059 17.98116,-8.97628 37.29523,-21.59304 43.93005,-28.69694 60.94187,-38.43355 99.14049,-56.74239 53.28763,-25.54111 102.43719,-42.89169 158.17594,-55.83865 53.0936,-12.33254 57.7103,-12.96774 136.5521,-18.78818 14.0225,-1.0352 89.3871,2.40124 114.3391,5.21358 25.8927,2.91836 88.911,15.15524 119.584,23.22079 13.2697,3.48929 47.4311,13.32257 75.9143,21.85175 86.3545,25.85844 135.674,37.03176 199.73,45.24869 29.2911,3.7574 41.6504,4.20768 92.5487,3.3718 51.3123,-0.84269 62.7006,-1.66181 90.0303,-6.47554 40.2317,-7.08627 52.9688,-10.31033 86.1099,-21.79643 39.1317,-13.56235 56.1413,-21.11191 96.0465,-42.62946 33.0645,-17.82894 35.8651,-18.95294 41.4549,-16.63759 3.2971,1.36571 7.4103,4.04899 9.1405,5.96285 1.7302,1.91386 14.4165,28.02593 28.1917,58.02684 13.7753,30.0009 31.6837,68.70836 39.7965,86.01658 19.7368,42.10729 65.5416,141.00611 79.191,170.98417 6.0418,13.26963 19.678,42.53625 30.3027,65.03693 10.6247,22.50067 41.8209,89.53067 69.3249,148.95553 27.5041,59.42487 55.7431,120.31832 62.7535,135.31877 15.0875,32.2832 16.5062,37.97374 11.7571,47.15748 -5.1751,10.00742 -45.2413,48.99054 -70.3725,68.47014 -67.3621,52.21342 -128.6429,82.13912 -207.767,101.46052 -48.8723,11.9342 -66.3368,13.6884 -136.2328,13.684 -90.7806,-0.01 -114.3972,-3.5848 -256.8429,-38.9251 -113.7851,-28.2297 -163.8865,-34.8434 -248.4171,-32.7923 -78.3424,1.9009 -126.3487,9.7536 -195.7929,32.027 -30.2242,9.694 -59.7095,20.5721 -62.2761,22.9757 -0.3953,0.3701 0.7849,5.8446 2.6224,12.1657 7.4002,25.4557 2.3313,52.8676 -13.1125,70.9101 -9.1855,10.7312 -29.7161,24.3235 -39.517,26.1621 -5.5028,1.0323 -9.1024,3.9067 -15.1669,12.1113 -11.0019,14.8844 -22.4689,24.7611 -37.0729,31.9317 -11.1546,5.4769 -14.457,6.0868 -32.3533,5.9746 -15.4395,-0.097 -22.3918,-1.1454 -30.8526,-4.6535 l -10.922,-4.5284 -13.2046,6.1439 c -15.8559,7.3776 -35.9349,9.6472 -50.06725,5.6594 z m 38.92575,-29.9359 c 3.4808,-1.4793 9.5804,-5.1154 13.5547,-8.0803 8.9039,-6.6424 11.2282,-6.6939 19.6631,-0.4354 9.0795,6.7367 18.8615,9.7305 31.7932,9.7305 24.315,0 44.072,-13.3403 53.2511,-35.9562 l 4.7839,-11.7867 12.8389,-1.4525 c 15.9524,-1.8049 22.1927,-4.9676 31.6872,-16.0598 9.9293,-11.6001 12.6907,-24.6137 11.3705,-53.5849 -2.1845,-47.9345 6.3485,-56.0938 82.8162,-79.19 74.7636,-22.58152 152.1041,-32.33792 237.5917,-29.97192 78.1153,2.1619 112.98,7.7757 229.7272,36.99022 120.8279,30.2356 156.7732,35.7624 232.5922,35.7624 69.4131,0 109.5476,-5.7465 163.9233,-23.4709 71.509,-23.309 129.63,-56.62222 184.1586,-105.55398 10.2869,-9.23105 20.8014,-19.77014 23.3654,-23.42018 l 4.662,-6.63647 -43.4354,-94.06586 c -23.8895,-51.73625 -48.8361,-105.3949 -55.4368,-119.24147 -6.6007,-13.84657 -16.2794,-34.61643 -21.5082,-46.15524 -5.2287,-11.53881 -25.2784,-54.96669 -44.5549,-96.5064 -19.2764,-41.53972 -45.9175,-99.12887 -59.2025,-127.97589 -13.285,-28.84702 -32.9449,-71.33082 -43.6886,-94.40844 -10.7438,-23.07762 -22.864,-49.27596 -26.9338,-58.21854 -4.5224,-9.93706 -8.6436,-16.25923 -10.5988,-16.25923 -1.7596,0 -18.3954,7.53895 -36.9685,16.75321 -53.9431,26.76166 -120.2727,46.75298 -187.7003,56.57172 -40.8743,5.95208 -111.1473,5.96327 -163.6413,0.0261 -57.6548,-6.52092 -145.0353,-25.22119 -197.2087,-42.20454 -115.0469,-37.44983 -197.303,-52.12886 -292.082,-52.12358 -80.8003,0.004 -144.9204,10.67252 -220.78635,36.73343 -68.37953,23.48922 -117.31499,48.64438 -188.29507,96.79265 -36.1797,24.54195 -38.75864,25.91674 -48.61672,25.91674 -15.06273,0 -21.68736,-6.41764 -34.18731,-33.11913 -11.96902,-25.56735 -17.47297,-31.91779 -27.66323,-31.91779 -5.53735,0 -8.54833,1.5409 -12.73619,6.5179 -7.31986,8.69915 -6.2292,13.94172 10.86483,52.22513 7.47073,16.73127 24.91271,56.38282 38.75995,88.11454 13.84725,31.73173 29.23496,66.66285 34.19492,77.62472 4.95996,10.96187 14.38665,32.20377 20.94821,47.20422 6.56156,15.00045 24.50958,55.59608 39.88449,90.21251 84.06182,189.26417 148.19924,340.20197 151.81842,357.28187 4.00447,18.8982 3.16906,24.6845 -4.84445,33.5545 -5.09175,5.636 -10.77463,9.0914 -19.40618,11.7997 -15.66505,4.9153 -22.79287,10.0654 -30.2881,21.8842 -5.19655,8.1941 -6.04445,11.6183 -6.04445,24.4105 0,19.3162 5.60659,31.0387 19.18535,40.1138 11.08036,7.4053 21.41186,9.413 36.47013,7.0871 11.85046,-1.8305 14.87568,-0.2838 19.0696,9.7492 10.44709,24.9923 40.27925,36.0315 66.85275,24.7385 z"
         id="path526-5"
         class="UnoptimicedTransforms"
         transform="matrix(0.58480123,0,0,0.5803816,508.73138,300.77493)" />
      <path
         style="fill:#000000;fill-opacity:0;stroke:#4d83af;stroke-width:30;stroke-linecap:round;stroke-dasharray:none;stroke-opacity:1"
         d="m 1225.3926,1142.7397 c -2.1911,-0.982 -6.0558,-3.4182 -8.5883,-5.4139 -2.5325,-1.9956 -6.7741,-4.02 -9.4258,-4.4985 -6.8492,-1.236 -14.727,-8.7692 -17.3424,-16.5836 -3.7051,-11.0709 -0.3567,-21.4597 8.9583,-27.7942 2.3058,-1.568 5.8708,-5.272 7.9223,-8.2311 4.7516,-6.8541 13.5856,-11.1955 22.8152,-11.2124 4.3054,-0.01 8.2288,-0.9189 11.6555,-2.7065 3.7934,-1.9789 7.2835,-2.6946 13.1401,-2.6946 9.6757,0 16.0708,2.9537 23.61,10.9047 2.8386,2.9937 5.7656,5.4431 6.5044,5.4431 2.5664,0 11.6995,8.8138 14.226,13.7287 5.3941,10.4934 0.7341,27.1307 -9.0591,32.3438 -2.0908,1.1129 -6.9396,4.8314 -10.775,8.2633 -8.5045,7.6095 -12.9319,9.1675 -25.3367,8.9158 -5.279,-0.1071 -12.9107,0.1462 -16.9594,0.563 -5.2376,0.5391 -8.5108,0.2427 -11.3451,-1.0276 z m 16.1328,-14.69 c 5.3757,-2.8367 6.0079,-2.9192 9.3235,-1.2176 8.1324,4.1737 17.5543,1.2109 20.7879,-6.5368 1.1557,-2.7689 2.698,-3.8757 6.8446,-4.9119 6.3086,-1.5765 9.1723,-5.0488 9.1723,-11.1214 0,-5.292 -4.7519,-10.3968 -11.3652,-12.2089 -3.3025,-0.905 -5.179,-2.5437 -7.5914,-6.6289 -3.9599,-6.7059 -6.1383,-7.9067 -14.3439,-7.9067 -5.7658,0 -6.9595,0.4742 -10.9661,4.3571 -4.3482,4.2137 -4.6525,4.3105 -9.2534,2.9433 -2.6166,-0.7775 -6.6898,-1.2314 -9.0515,-1.0086 -3.7184,0.3507 -4.7055,1.1816 -7.3614,6.1967 -1.687,3.1854 -4.0364,6.0999 -5.2209,6.4766 -1.1845,0.3768 -3.807,2.0657 -5.8277,3.7532 -3.0373,2.5364 -3.6741,3.9803 -3.6741,8.331 0,4.4262 0.6243,5.7841 3.9274,8.5425 3.2263,2.6942 4.7704,3.1676 8.6483,2.6514 4.3152,-0.5744 4.9527,-0.2734 7.4213,3.5043 2.4981,3.8231 8.2212,7.7345 11.4127,7.8 0.743,0.015 3.946,-1.3416 7.1176,-3.0153 z"
         id="path530-6" />
      <path
         style="fill:#000000;fill-opacity:0;stroke:#4d83af;stroke-width:30;stroke-linecap:round;stroke-dasharray:none;stroke-opacity:1"
         d="m 1378.7236,1178.7125 c -10.5564,-5.5704 -12.697,-7.4235 -14.7559,-12.774 -3.0869,-8.0217 -1.1176,-13.2362 8.4379,-22.3424 4.2926,-4.0909 9.1266,-7.7419 10.7421,-8.1132 22.7318,-5.2252 24.2525,-4.9656 37.5482,6.4107 12.4448,10.6481 12.9288,18.1698 1.907,29.6376 -9.1533,9.5237 -12.3178,10.7992 -26.2748,10.5902 -9.8633,-0.1477 -12.3294,-0.6253 -17.6045,-3.4089 z m 23.2085,-9.1152 c 3.7934,-0.056 6.2296,-0.6769 6.5642,-1.6729 0.2927,-0.8711 2.6852,-2.9327 5.3167,-4.5814 5.6194,-3.5205 6.1529,-6.7766 1.6242,-9.9114 -1.7382,-1.2033 -5.0324,-3.9685 -7.3205,-6.145 -4.684,-4.4557 -7.2722,-4.8826 -11.5544,-1.9059 -1.7701,1.2305 -4.8299,1.9413 -7.646,1.7764 -4.1743,-0.2444 -4.9707,0.1888 -7.1806,3.906 -1.3671,2.2996 -3.5703,4.4625 -4.8959,4.8065 -4.6147,1.1977 -2.1744,8.5605 3.2882,9.9211 1.8202,0.4534 4.7094,1.9173 6.4205,3.253 2.2511,1.7574 3.9733,2.1818 6.2312,1.5356 1.7162,-0.4911 5.8348,-0.933 9.1524,-0.982 z"
         id="path532-2" />
    </g>
    <g
       id="g5355"
       style="display:none">
      <path
         style="fill:#4d83af;fill-opacity:1;stroke:#4d83af;stroke-width:34.79;stroke-linecap:round;stroke-dasharray:none;stroke-opacity:1"
         d="m 992.02455,1244.946 c -14.00817,-3.9527 -26.94731,-12.2159 -38.54705,-24.617 -9.96036,-10.6484 -10.59063,-10.9629 -24.05441,-12.0026 -26.19215,-2.0225 -49.46679,-18.5294 -61.33729,-43.5016 -5.16842,-10.873 -5.98379,-15.0967 -5.98522,-31.0048 -0.001,-16.3555 0.71329,-19.8333 6.38524,-31.0694 7.55736,-14.9711 21.30085,-28.7909 36.59529,-36.7986 10.05354,-5.2636 10.90212,-6.261 9.48528,-11.1481 -1.83223,-6.3198 -91.01907,-213.83249 -135.3052,-314.81711 C 746.91302,666.22405 709.59295,581.723 649.07797,445.22266 c -19.95054,-45.00136 -37.38139,-86.0019 -38.73521,-91.11232 -6.46906,-24.41945 8.40882,-54.52944 32.30664,-65.38244 10.93073,-4.9641 35.88698,-5.36279 46.95926,-0.7502 11.90143,4.958 23.05842,17.09717 32.05771,34.87984 4.48142,8.85532 9.12847,16.70653 10.32677,17.44712 1.1983,0.74059 17.98116,-8.97628 37.29523,-21.59304 43.93005,-28.69694 60.94187,-38.43355 99.14049,-56.74239 53.28763,-25.54111 102.43719,-42.89169 158.17594,-55.83865 53.0936,-12.33254 57.7103,-12.96774 136.5521,-18.78818 14.0225,-1.0352 89.3871,2.40124 114.3391,5.21358 25.8927,2.91836 88.911,15.15524 119.584,23.22079 13.2697,3.48929 47.4311,13.32257 75.9143,21.85175 86.3545,25.85844 135.674,37.03176 199.73,45.24869 29.2911,3.7574 41.6504,4.20768 92.5487,3.3718 51.3123,-0.84269 62.7006,-1.66181 90.0303,-6.47554 40.2317,-7.08627 52.9688,-10.31033 86.1099,-21.79643 39.1317,-13.56235 56.1413,-21.11191 96.0465,-42.62946 33.0645,-17.82894 35.8651,-18.95294 41.4549,-16.63759 3.2971,1.36571 7.4103,4.04899 9.1405,5.96285 1.7302,1.91386 14.4165,28.02593 28.1917,58.02684 13.7753,30.0009 31.6837,68.70836 39.7965,86.01658 19.7368,42.10729 65.5416,141.00611 79.191,170.98417 6.0418,13.26963 19.678,42.53625 30.3027,65.03693 10.6247,22.50067 41.8209,89.53067 69.3249,148.95553 27.5041,59.42487 55.7431,120.31832 62.7535,135.31877 15.0875,32.2832 16.5062,37.97374 11.7571,47.15748 -5.1751,10.00742 -45.2413,48.99054 -70.3725,68.47014 -67.3621,52.21342 -128.6429,82.13912 -207.767,101.46052 -48.8723,11.9342 -66.3368,13.6884 -136.2328,13.684 -90.7806,-0.01 -114.3972,-3.5848 -256.8429,-38.9251 -113.7851,-28.2297 -163.8865,-34.8434 -248.4171,-32.7923 -78.3424,1.9009 -126.3487,9.7536 -195.7929,32.027 -30.2242,9.694 -59.7095,20.5721 -62.2761,22.9757 -0.3953,0.3701 0.7849,5.8446 2.6224,12.1657 7.4002,25.4557 2.3313,52.8676 -13.1125,70.9101 -9.1855,10.7312 -29.7161,24.3235 -39.517,26.1621 -5.5028,1.0323 -9.1024,3.9067 -15.1669,12.1113 -11.0019,14.8844 -22.4689,24.7611 -37.0729,31.9317 -11.1546,5.4769 -14.457,6.0868 -32.3533,5.9746 -15.4395,-0.097 -22.3918,-1.1454 -30.8526,-4.6535 l -10.922,-4.5284 -13.2046,6.1439 c -15.8559,7.3776 -35.9349,9.6472 -50.06725,5.6594 z m 38.92575,-29.9359 c 3.4808,-1.4793 9.5804,-5.1154 13.5547,-8.0803 8.9039,-6.6424 11.2282,-6.6939 19.6631,-0.4354 9.0795,6.7367 18.8615,9.7305 31.7932,9.7305 24.315,0 44.072,-13.3403 53.2511,-35.9562 l 4.7839,-11.7867 12.8389,-1.4525 c 15.9524,-1.8049 22.1927,-4.9676 31.6872,-16.0598 9.9293,-11.6001 12.6907,-24.6137 11.3705,-53.5849 -2.1845,-47.9345 6.3485,-56.0938 82.8162,-79.19 74.7636,-22.58152 152.1041,-32.33792 237.5917,-29.97192 78.1153,2.1619 112.98,7.7757 229.7272,36.99022 120.8279,30.2356 156.7732,35.7624 232.5922,35.7624 69.4131,0 109.5476,-5.7465 163.9233,-23.4709 71.509,-23.309 129.63,-56.62222 184.1586,-105.55398 10.2869,-9.23105 20.8014,-19.77014 23.3654,-23.42018 l 4.662,-6.63647 -43.4354,-94.06586 c -23.8895,-51.73625 -48.8361,-105.3949 -55.4368,-119.24147 -6.6007,-13.84657 -16.2794,-34.61643 -21.5082,-46.15524 -5.2287,-11.53881 -25.2784,-54.96669 -44.5549,-96.5064 -19.2764,-41.53972 -45.9175,-99.12887 -59.2025,-127.97589 -13.285,-28.84702 -32.9449,-71.33082 -43.6886,-94.40844 -10.7438,-23.07762 -22.864,-49.27596 -26.9338,-58.21854 -4.5224,-9.93706 -8.6436,-16.25923 -10.5988,-16.25923 -1.7596,0 -18.3954,7.53895 -36.9685,16.75321 -53.9431,26.76166 -120.2727,46.75298 -187.7003,56.57172 -40.8743,5.95208 -111.1473,5.96327 -163.6413,0.0261 -57.6548,-6.52092 -145.0353,-25.22119 -197.2087,-42.20454 -115.0469,-37.44983 -197.303,-52.12886 -292.082,-52.12358 -80.8003,0.004 -144.9204,10.67252 -220.78635,36.73343 -68.37953,23.48922 -117.31499,48.64438 -188.29507,96.79265 -36.1797,24.54195 -38.75864,25.91674 -48.61672,25.91674 -15.06273,0 -21.68736,-6.41764 -34.18731,-33.11913 -11.96902,-25.56735 -17.47297,-31.91779 -27.66323,-31.91779 -5.53735,0 -8.54833,1.5409 -12.73619,6.5179 -7.31986,8.69915 -6.2292,13.94172 10.86483,52.22513 7.47073,16.73127 24.91271,56.38282 38.75995,88.11454 13.84725,31.73173 29.23496,66.66285 34.19492,77.62472 4.95996,10.96187 14.38665,32.20377 20.94821,47.20422 6.56156,15.00045 24.50958,55.59608 39.88449,90.21251 84.06182,189.26417 148.19924,340.20197 151.81842,357.28187 4.00447,18.8982 3.16906,24.6845 -4.84445,33.5545 -5.09175,5.636 -10.77463,9.0914 -19.40618,11.7997 -15.66505,4.9153 -22.79287,10.0654 -30.2881,21.8842 -5.19655,8.1941 -6.04445,11.6183 -6.04445,24.4105 0,19.3162 5.60659,31.0387 19.18535,40.1138 11.08036,7.4053 21.41186,9.413 36.47013,7.0871 11.85046,-1.8305 14.87568,-0.2838 19.0696,9.7492 10.44709,24.9923 40.27925,36.0315 66.85275,24.7385 z"
         id="path526"
         class="UnoptimicedTransforms"
         transform="matrix(0.55786733,0,0,0.52742122,550.98422,336.552)" />
      <path
         style="fill:#4d83af;fill-opacity:1;stroke:#4d83af;stroke-width:20;stroke-linecap:round;stroke-dasharray:none;stroke-opacity:1"
         d="m 1228.2446,1138.2597 c -2.1621,-0.9689 -5.9756,-3.3729 -8.4746,-5.3422 -2.499,-1.9692 -6.6845,-3.9668 -9.301,-4.439 -6.7587,-1.2196 -14.5322,-8.6531 -17.1129,-16.3642 -3.6561,-10.9243 -0.3521,-21.1756 8.8397,-27.4263 2.2753,-1.5473 5.7931,-5.2023 7.8174,-8.1222 4.6887,-6.7634 13.4058,-11.0473 22.5133,-11.0641 4.2484,-0.01 8.1199,-0.9067 11.5012,-2.6706 3.7433,-1.9528 7.1872,-2.659 12.9663,-2.659 9.5476,0 15.8581,2.9146 23.2975,10.7605 2.8011,2.954 5.6894,5.371 6.4184,5.371 2.5324,0 11.5446,8.6971 14.0377,13.5471 5.3227,10.3544 0.7244,26.7716 -8.9392,31.9157 -2.0631,1.0982 -6.8477,4.7674 -10.6324,8.1539 -8.392,7.5089 -12.7607,9.0462 -25.0015,8.7979 -5.209,-0.1058 -12.7398,0.1443 -16.7349,0.5555 -5.1683,0.532 -8.3981,0.2395 -11.195,-1.014 z m 15.9194,-14.4956 c 5.3045,-2.7991 5.9283,-2.8805 9.2001,-1.2014 8.0248,4.1184 17.322,1.1948 20.5128,-6.4504 1.1404,-2.7322 2.6622,-3.8244 6.754,-4.8469 6.2251,-1.5556 9.0509,-4.982 9.0509,-10.9742 0,-5.222 -4.689,-10.2592 -11.2148,-12.0474 -3.2587,-0.8929 -5.1105,-2.51 -7.4909,-6.5411 -3.9075,-6.6172 -6.0571,-7.8021 -14.1541,-7.8021 -5.6895,0 -6.8674,0.4679 -10.821,4.2994 -4.2906,4.158 -4.5909,4.2535 -9.131,2.9044 -2.5819,-0.7672 -6.6012,-1.2151 -8.9317,-0.9952 -3.6691,0.3461 -4.6432,1.1659 -7.2639,6.1147 -1.6647,3.1432 -3.983,6.0192 -5.1519,6.3909 -1.1688,0.3718 -3.7566,2.0384 -5.7506,3.7035 -2.9971,2.5028 -3.6254,3.9276 -3.6254,8.2207 0,4.3677 0.616,5.7076 3.8755,8.4295 3.1835,2.6586 4.7072,3.1257 8.5337,2.6163 4.2582,-0.5668 4.8872,-0.2698 7.3231,3.458 2.4651,3.7725 8.1125,7.6321 11.2617,7.6967 0.7332,0.015 3.8938,-1.3239 7.0235,-2.9754 z"
         id="path530" />
      <path
         style="fill:#4d83af;fill-opacity:1;stroke:#4d83af;stroke-width:20;stroke-linecap:round;stroke-dasharray:none;stroke-opacity:1"
         d="m 1380.4189,1173.999 c -10.4167,-5.4967 -12.529,-7.3252 -14.5606,-12.605 -3.0461,-7.9155 -1.1028,-13.061 8.3262,-22.0467 4.2358,-4.0368 9.0058,-7.6394 10.6,-8.0058 22.4309,-5.1561 23.9315,-4.8999 37.0513,6.3258 12.2801,10.5072 12.7576,17.9293 1.8817,29.2454 -9.0321,9.3977 -12.1548,10.6564 -25.9271,10.4501 -9.7328,-0.1458 -12.1662,-0.617 -17.3715,-3.3638 z m 22.9014,-8.9946 c 3.7432,-0.056 6.1471,-0.668 6.4773,-1.6508 0.2888,-0.8595 2.6497,-2.8939 5.2463,-4.5207 5.545,-3.4739 6.0715,-6.6869 1.6027,-9.7803 -1.7152,-1.1873 -4.9658,-3.916 -7.2235,-6.0637 -4.6221,-4.3967 -7.176,-4.818 -11.4016,-1.8806 -1.7467,1.2141 -4.7659,1.9156 -7.5448,1.7529 -4.1191,-0.2412 -4.9049,0.1862 -7.0856,3.8543 -1.349,2.2691 -3.523,4.4034 -4.8311,4.7429 -4.5536,1.1818 -2.1457,8.4472 3.2447,9.7898 1.7961,0.4474 4.6471,1.8919 6.3355,3.2099 2.2213,1.7341 3.9208,2.1529 6.1488,1.5153 1.6935,-0.4846 5.7575,-0.9207 9.0313,-0.969 z"
         id="path532" />
    </g>
  </g>
</svg>
